<svg xmlns="http://www.w3.org/2000/svg" viewBox="0 0 64 64" width="512" height="512" role="img" aria-label="תרופותי">
  <defs>
    <linearGradient id="g" x1="0" y1="0" x2="1" y2="1">
      <stop offset="0" stop-color="#34D399"/>
      <stop offset="1" stop-color="#0F766E"/>
    </linearGradient>
    <filter id="soft" x="-20%" y="-20%" width="140%" height="140%">
      <feDropShadow dx="0" dy="1" stdDeviation="1.2" flood-color="#0F766E" flood-opacity="0.25"/>
    </filter>
  </defs>
  <g filter="url(#soft)">
    <rect x="10" y="10" width="44" height="46" rx="12" fill="url(#g)" stroke="#0F766E" stroke-width="2.5" />
    <path d="M26 9.5c0-2.2 1.8-4 4-4h4c2.2 0 4 1.8 4 4v2.5c0 1-0.8 1.8-1.8 1.8H27.8c-1 0-1.8-0.8-1.8-1.8V9.5z"
          fill="#2CCF97" stroke="#0F766E" stroke-width="2" />
    <rect x="29" y="9" width="6" height="4" rx="2" fill="#EFFFF7" opacity="0.55" />
    <rect x="18" y="24" width="24" height="3" rx="1.5" fill="#EFFFF7" opacity="0.9" />
    <rect x="18" y="31" width="22" height="3" rx="1.5" fill="#EFFFF7" opacity="0.85" />
    <rect x="18" y="38" width="20" height="3" rx="1.5" fill="#EFFFF7" opacity="0.8" />
    <g transform="translate(45 22)">
      <rect x="-2.2" y="-7" width="4.4" height="14" rx="2.2" fill="#FFFFFF"/>
      <rect x="-7" y="-2.2" width="14" height="4.4" rx="2.2" fill="#FFFFFF"/>
    </g>
    <g transform="translate(20 40) rotate(-25 18 10)">
      <rect x="6" y="4" width="36" height="20" rx="10" fill="#FFFFFF" stroke="#0F766E" stroke-width="2.2"/>
      <path d="M24 4h8c5.5 0 10 4.5 10 10s-4.5 10-10 10h-8V4z" fill="#0F766E" opacity="0.95"/>
      <path d="M24 6v16" stroke="#34D399" stroke-width="2" opacity="0.9"/>
      <path d="M12 7c5-4 12-4 18 0" fill="none" stroke="#34D399" stroke-width="2" opacity="0.45" stroke-linecap="round"/>
    </g>
  </g>
</svg>
